<?xml version="1.0" standalone="no"?><!DOCTYPE svg PUBLIC "-//W3C//DTD SVG 1.1//EN" "http://www.w3.org/Graphics/SVG/1.1/DTD/svg11.dtd"><svg t="1777027387189" class="icon" viewBox="0 0 1024 1024" version="1.1" xmlns="http://www.w3.org/2000/svg" p-id="4648" xmlns:xlink="http://www.w3.org/1999/xlink" width="200" height="200"><path d="M512 723.84c116.992 0 211.84-94.848 211.84-211.84S628.992 300.16 512 300.16 300.16 395.008 300.16 512 395.008 723.84 512 723.84z m0 42.24c-140.416 0-254.08-113.792-254.08-254.08S371.584 257.92 512 257.92 766.08 371.584 766.08 512c0 67.456-26.752 132.096-74.496 179.712-47.488 47.616-112.128 74.368-179.584 74.368z m-21.248-619.392c1.28-10.624 10.368-18.688 21.12-18.688s19.84 8.064 21.12 18.688v63.488c-1.28 10.624-10.368 18.688-21.12 18.688s-19.84-8.064-21.12-18.688v-63.488z m264.576 92.16c8.448-6.528 20.48-5.76 28.032 1.792 7.552 7.552 8.32 19.584 1.792 28.032l-44.8 44.8c-8.448 6.528-20.48 5.76-28.032-1.792-7.552-7.552-8.32-19.584-1.792-28.032l44.8-44.8z m121.984 252.16c8.192-1.024 16.128 2.816 20.608 9.728 4.352 6.912 4.352 15.872 0 22.784s-12.416 10.752-20.608 9.728h-63.488c-8.192 1.024-16.128-2.816-20.608-9.728-4.352-6.912-4.352-15.872 0-22.784s12.416-10.752 20.608-9.728h63.488z m-92.16 264.576c6.528 8.448 5.76 20.48-1.792 28.032-7.552 7.552-19.584 8.32-28.032 1.792l-44.8-44.8c-6.528-8.448-5.76-20.48 1.792-28.032 7.552-7.552 19.584-8.32 28.032-1.792l44.8 44.8z m-251.904 121.728c-1.28 10.624-10.368 18.688-21.12 18.688s-19.84-8.064-21.12-18.688v-63.488c1.28-10.624 10.368-18.688 21.12-18.688s19.84 8.064 21.12 18.688v63.488z m-264.576-92.16c-8.448 6.528-20.48 5.76-28.032-1.792-7.552-7.552-8.32-19.584-1.792-28.032l44.8-44.8c4.992-6.528 13.44-9.472 21.504-7.68 8.064 1.792 14.336 8.064 16.128 16.128 1.792 8.064-1.152 16.384-7.68 21.504l-44.928 44.672z m-121.984-251.904c-8.192 1.024-16.128-2.816-20.608-9.728-4.352-6.912-4.352-15.872 0-22.784s12.416-10.752 20.608-9.728h63.488c8.192-1.024 16.128 2.816 20.608 9.728 4.352 6.912 4.352 15.872 0 22.784s-12.416 10.752-20.608 9.728h-63.488z m92.16-264.576c-6.528-8.448-5.76-20.48 1.792-28.032 7.552-7.552 19.584-8.32 28.032-1.792l44.8 44.8c6.528 4.992 9.472 13.44 7.68 21.504-1.792 8.064-8.064 14.336-16.128 16.128-8.064 1.792-16.384-1.152-21.504-7.68l-44.672-44.928z m0 0" p-id="4649"></path></svg>