<svg xmlns="http://www.w3.org/2000/svg" viewBox="0 0 24 24" width="32" height="32" fill="none" stroke="currentColor" stroke-width="1.5" stroke-linecap="round" stroke-linejoin="round">
  <path d="M4 11s2.5-5 8-5 8 5 8 5-2.5 5-8 5-8-5-8-5Z" />
  <circle cx="12" cy="11" r="2.5" />
  <circle cx="12" cy="11" r="0.5" fill="currentColor" />

  <path d="M2.5 11s0-8 9.5-8 9.5 8 9.5 8" opacity="0.4" />

  <path d="M12 16v5" />
  <path d="M8 21h8" />
  <path d="M6 16s1-1 6-1 6 1 6 1-1.5 5-6 5-6-5-6-5Z" fill="currentColor" opacity="0.1" stroke="none"/>
</svg>
